<svg width="55" height="45" viewBox="0 0 55 45" fill="none" xmlns="http://www.w3.org/2000/svg">
<g clip-path="url(#clip0_107_403)">
<path d="M3.67996 28.27C10.55 18.93 17.81 9.89002 25.36 1.08002C25.94 0.400021 24.86 0.0300206 24.36 2.06106e-05C23.47 -0.0499794 22.52 0.340021 21.94 1.00002C14.27 9.73002 7.03996 18.84 0.14996 28.19C-0.39004 28.92 0.60996 29.27 1.17996 29.3C2.02996 29.34 3.15996 28.98 3.67996 28.27Z" fill="black"/>
<path d="M13.94 34.22C18.1 31.5 22.26 28.78 26.41 26.05C26.9 25.73 27.5 25.02 26.73 24.63C25.96 24.24 24.8 24.55 24.14 24.97C19.96 27.68 15.79 30.39 11.61 33.11C11.11 33.44 10.49 34.17 11.28 34.57C12.07 34.97 13.26 34.66 13.93 34.22H13.94Z" fill="black"/>
<path d="M23.6301 44.02C33.2301 40.86 42.8401 37.72 52.4401 34.53C52.9701 34.36 54.2401 33.9 54.0301 33.12C53.8301 32.38 52.4401 32.53 51.9501 32.69C42.3401 35.82 32.7401 38.98 23.1301 42.14C22.5901 42.32 21.2901 42.78 21.5101 43.58C21.7101 44.33 23.1301 44.18 23.6401 44.01L23.6301 44.02Z" fill="black"/>
</g>
<defs>
<clipPath id="clip0_107_403">
<rect width="54.05" height="44.15" fill="white"/>
</clipPath>
</defs>
</svg>
