<svg width="293" height="316" viewBox="0 0 293 316" fill="none" xmlns="http://www.w3.org/2000/svg">
<path d="M4 39V16.439C4 12.3412 6.23787 3.91433 15.0687 2.13259C15.5641 2.03264 16.072 2 16.5774 2H44" stroke="#BFBFBF" stroke-width="3" stroke-linecap="round"/>
<path d="M291 39V16.439C291 12.3412 288.762 3.91433 279.931 2.13259C279.436 2.03264 278.928 2 278.423 2H251" stroke="#BFBFBF" stroke-width="3" stroke-linecap="round"/>
<path d="M286 277V299.561C286 303.659 283.762 312.086 274.931 313.867C274.436 313.967 273.928 314 273.423 314H246" stroke="#BFBFBF" stroke-width="3" stroke-linecap="round"/>
<path d="M2 277V299.561C2 303.659 4.23787 312.086 13.0687 313.867C13.5641 313.967 14.072 314 14.5774 314H42" stroke="#BFBFBF" stroke-width="3" stroke-linecap="round"/>
</svg>
